<svg width="14" height="12" viewBox="0 0 14 12" fill="none" xmlns="http://www.w3.org/2000/svg">
<path d="M12.3335 0.666668H1.66683C0.933496 0.666668 0.340163 1.26667 0.340163 2L0.333496 10C0.333496 10.7333 0.933496 11.3333 1.66683 11.3333H12.3335C13.0668 11.3333 13.6668 10.7333 13.6668 10V2C13.6668 1.26667 13.0668 0.666668 12.3335 0.666668ZM12.0668 3.5L7.3535 6.44667C7.14016 6.58 6.86016 6.58 6.64683 6.44667L1.9335 3.5C1.76683 3.39333 1.66683 3.21333 1.66683 3.02C1.66683 2.57333 2.1535 2.30667 2.5335 2.54L7.00016 5.33333L11.4668 2.54C11.8468 2.30667 12.3335 2.57333 12.3335 3.02C12.3335 3.21333 12.2335 3.39333 12.0668 3.5Z" fill="#222222"/>
</svg>
