<svg width="33" height="32" viewBox="0 0 33 32" fill="none" xmlns="http://www.w3.org/2000/svg">
<path d="M21.8558 2.66667H11.0958C8.99337 2.66914 6.97775 3.50552 5.49121 4.99232C4.00467 6.47911 3.16862 8.49487 3.1665 10.5973L3.1665 21.3573C3.16897 23.4598 4.00536 25.4754 5.49215 26.962C6.97894 28.4485 8.99471 29.2846 11.0972 29.2867H21.8572C23.9596 29.2842 25.9753 28.4478 27.4618 26.961C28.9483 25.4742 29.7844 23.4585 29.7865 21.356V10.596C29.784 8.49354 28.9476 6.47792 27.4609 4.99137C25.9741 3.50483 23.9583 2.66879 21.8558 2.66667V2.66667ZM27.1092 21.356C27.1092 22.0459 26.9733 22.729 26.7093 23.3664C26.4453 24.0037 26.0583 24.5829 25.5705 25.0707C25.0827 25.5585 24.5036 25.9454 23.8662 26.2094C23.2288 26.4735 22.5457 26.6093 21.8558 26.6093H11.0958C9.7028 26.609 8.36693 26.0553 7.38203 25.0702C6.39713 24.085 5.84384 22.749 5.84384 21.356V10.596C5.84419 9.20296 6.39782 7.8671 7.38297 6.8822C8.36813 5.89729 9.70413 5.344 11.0972 5.344H21.8572C23.2502 5.34435 24.5861 5.89799 25.571 6.88314C26.5559 7.86829 27.1092 9.2043 27.1092 10.5973V21.3573V21.356Z" fill="#0F172A"/>
<path d="M16.4759 9.092C14.6512 9.09482 12.902 9.82105 11.6118 11.1115C10.3216 12.4019 9.59573 14.1512 9.59326 15.976C9.59538 17.8012 10.3213 19.5511 11.6118 20.8419C12.9023 22.1326 14.652 22.8589 16.4773 22.8613C18.3027 22.8592 20.0528 22.1331 21.3436 20.8423C22.6344 19.5515 23.3605 17.8015 23.3626 15.976C23.3598 14.1508 22.6332 12.4012 21.3422 11.1109C20.0512 9.82067 18.3012 9.0951 16.4759 9.09333V9.092ZM16.4759 20.184C15.3603 20.184 14.2903 19.7408 13.5014 18.9519C12.7125 18.163 12.2693 17.093 12.2693 15.9773C12.2693 14.8617 12.7125 13.7917 13.5014 13.0028C14.2903 12.2139 15.3603 11.7707 16.4759 11.7707C17.5916 11.7707 18.6616 12.2139 19.4505 13.0028C20.2394 13.7917 20.6826 14.8617 20.6826 15.9773C20.6826 17.093 20.2394 18.163 19.4505 18.9519C18.6616 19.7408 17.5916 20.184 16.4759 20.184Z" fill="#0F172A"/>
<path d="M23.3744 10.7933C24.2853 10.7933 25.0238 10.0549 25.0238 9.144C25.0238 8.2331 24.2853 7.49467 23.3744 7.49467C22.4635 7.49467 21.7251 8.2331 21.7251 9.144C21.7251 10.0549 22.4635 10.7933 23.3744 10.7933Z" fill="#0F172A"/>
</svg>
