<svg width="10" height="14" viewBox="0 0 10 14" fill="none" xmlns="http://www.w3.org/2000/svg">
<path d="M5.00016 0.333333C2.42016 0.333333 0.333496 2.42 0.333496 5C0.333496 7.78 3.28016 11.6133 4.4935 13.0733C4.76016 13.3933 5.24683 13.3933 5.5135 13.0733C6.72016 11.6133 9.66683 7.78 9.66683 5C9.66683 2.42 7.58016 0.333333 5.00016 0.333333ZM5.00016 6.66667C4.08016 6.66667 3.3335 5.92 3.3335 5C3.3335 4.08 4.08016 3.33333 5.00016 3.33333C5.92016 3.33333 6.66683 4.08 6.66683 5C6.66683 5.92 5.92016 6.66667 5.00016 6.66667Z" fill="#222222"/>
</svg>
