<svg width="159" height="48" viewBox="0 0 159 48" fill="none" xmlns="http://www.w3.org/2000/svg">
<g clip-path="url(#clip0_135_832)">
<path d="M61.1333 28.7305H59.7245L58.9299 34.3591H59.6243L59.9181 32.2626H60.6726C62.462 32.2626 63.0696 31.241 63.0696 30.1994C63.0696 29.1578 62.3485 28.7305 61.1333 28.7305ZM60.6926 31.7017H60.0049L60.3388 29.2914H61.0799C61.8477 29.2914 62.3218 29.5184 62.3218 30.2061C62.3218 30.9472 62.0013 31.7017 60.6859 31.7017H60.6926ZM65.7938 29.9591C65.2863 29.9591 64.839 30.2929 64.5118 30.9806L64.5786 30.0592H63.9977L63.3901 34.3591H64.0711L64.405 32.0356C64.7188 31.1542 65.0994 30.6401 65.6736 30.6401C65.8138 30.6401 65.9006 30.6468 66.0274 30.6802L66.2211 30.0192C66.1009 29.9858 65.954 29.9591 65.7938 29.9591ZM67.9036 34.4593C69.5795 34.4593 70.107 32.7767 70.107 31.7284C70.107 30.6802 69.5395 29.9591 68.4845 29.9591C66.8153 29.9591 66.2745 31.6216 66.2745 32.6832C66.2745 33.7449 66.8487 34.4593 67.9036 34.4593ZM67.917 33.9051C67.3094 33.9051 66.9822 33.5379 66.9822 32.7634C66.9822 31.9221 67.3027 30.5199 68.4511 30.5199C69.0587 30.5199 69.3859 30.8872 69.3859 31.6617C69.3859 32.503 69.0654 33.9051 67.917 33.9051ZM72.1501 34.4593C72.7711 34.4593 73.2184 34.0854 73.6124 33.4911L73.5389 34.3591H74.1198L74.7274 30.0592H74.0464L73.6591 32.8234C73.3052 33.3776 72.8579 33.9185 72.2903 33.9185C71.8897 33.9185 71.7161 33.6914 71.8029 33.0838L72.2302 30.0592H71.5492L71.1219 33.1106C71.0017 33.9518 71.389 34.4593 72.1435 34.4593H72.1501ZM79.0607 28.2498L78.7402 30.5132C78.5132 30.2128 78.1526 29.9591 77.6252 29.9591C76.1429 29.9591 75.6221 31.6416 75.6221 32.7567C75.6221 33.7983 76.0962 34.4593 76.9708 34.4593C77.5517 34.4593 77.9991 34.1188 78.3062 33.6113L78.2795 34.3658H78.8737L79.7217 28.3366L79.054 28.2565L79.0607 28.2498ZM77.752 30.5066C78.1793 30.5066 78.4531 30.7202 78.6667 31.0541L78.413 32.8702C78.0191 33.4911 77.6585 33.9118 77.1044 33.9118C76.6303 33.9118 76.3432 33.5579 76.3432 32.7967C76.3432 31.9221 76.6704 30.5066 77.752 30.5066ZM81.905 28.2431L81.2173 28.3232L80.4962 33.4377C80.3961 34.1254 80.6898 34.4593 81.2373 34.4593C81.4176 34.4593 81.6046 34.4192 81.8116 34.3257L81.6713 33.825C81.5712 33.8584 81.4644 33.8851 81.3709 33.8851C81.1773 33.8851 81.1305 33.7849 81.1572 33.5512L81.8984 28.2431H81.905ZM86.3318 30.0592H85.6174L83.9214 33.8383L83.2805 30.0592H82.5594L83.4007 34.3591H83.6544C83.2871 35.0535 82.9867 35.3807 82.092 35.5476L82.1254 36.0884C83.2871 35.9415 83.8947 35.3206 84.3087 34.4059L86.3184 30.0659L86.3318 30.0592ZM91.5731 28.637C89.6168 28.637 88.7755 30.6134 88.7755 32.2426C88.7755 33.7115 89.5367 34.4593 90.7452 34.4593C91.4797 34.4593 92.0605 34.2723 92.6014 33.9385L92.9686 31.2611H91.1859V31.8419H92.1941L91.9404 33.5913C91.5865 33.7849 91.2193 33.8717 90.8387 33.8717C89.9774 33.8717 89.5167 33.411 89.5167 32.336C89.5167 30.9472 90.0975 29.2313 91.5865 29.2313C92.0672 29.2313 92.381 29.3515 92.7549 29.6586L93.1956 29.2714C92.7683 28.8707 92.2809 28.6437 91.5731 28.6437V28.637ZM97.3486 31.0407C97.3486 30.4665 96.9013 29.9591 96.0066 29.9591C94.3841 29.9591 93.7965 31.5281 93.7965 32.7166C93.7965 33.8049 94.3774 34.4593 95.419 34.4593C95.9932 34.4593 96.4806 34.2723 96.9413 33.9385L96.6476 33.4711C96.2536 33.7582 95.9064 33.8784 95.4858 33.8784C94.9116 33.8784 94.5176 33.5779 94.511 32.7433C96.0733 32.5831 97.3486 32.2359 97.3486 31.0407ZM94.5443 32.2092C94.6578 31.4013 95.0585 30.5066 95.9999 30.5066C96.4806 30.5066 96.6275 30.8271 96.6275 31.0608C96.6275 31.8019 95.8664 32.0756 94.5443 32.2025V32.2092ZM99.6054 34.4593C101.281 34.4593 101.802 32.7767 101.802 31.7284C101.802 30.6802 101.235 29.9591 100.18 29.9591C98.5104 29.9591 97.9696 31.6216 97.9696 32.6832C97.9696 33.7449 98.5438 34.4593 99.5987 34.4593H99.6054ZM99.6188 33.9051C99.0112 33.9051 98.684 33.5379 98.684 32.7634C98.684 31.9221 99.0045 30.5199 100.153 30.5199C100.761 30.5199 101.088 30.8872 101.088 31.6617C101.088 32.503 100.767 33.9051 99.6188 33.9051ZM105.114 29.9657C104.606 29.9657 104.159 30.2996 103.832 30.9873L103.899 30.0659H103.318L102.71 34.3658H103.391L103.725 32.0423C104.039 31.1609 104.419 30.6468 104.994 30.6468C105.134 30.6468 105.221 30.6535 105.348 30.6868L105.541 30.0258C105.421 29.9925 105.274 29.9657 105.114 29.9657ZM107.891 29.9657C106.222 29.9657 105.588 31.4881 105.588 32.7366C105.588 33.7248 106.102 34.3658 106.963 34.3658C107.457 34.3658 107.885 34.0854 108.205 33.6981L108.125 34.279C107.978 35.3273 107.411 35.5276 106.83 35.5276C106.362 35.5276 105.928 35.3406 105.655 35.1737L105.394 35.6945C105.795 35.9415 106.342 36.1085 106.863 36.1085C107.845 36.1085 108.586 35.6411 108.793 34.279L109.38 30.3263C108.913 30.0993 108.466 29.9591 107.891 29.9591V29.9657ZM107.898 30.5132C108.199 30.5132 108.412 30.56 108.659 30.6668L108.299 32.9837C107.965 33.4577 107.578 33.8183 107.097 33.8183C106.616 33.8183 106.309 33.4845 106.309 32.75C106.309 31.7218 106.756 30.5199 107.898 30.5199V30.5132ZM111.423 28.9842C111.717 28.9842 111.944 28.7639 111.944 28.4701C111.944 28.2231 111.771 28.0361 111.497 28.0361C111.203 28.0361 110.983 28.2565 110.983 28.5502C110.983 28.7973 111.156 28.9842 111.423 28.9842ZM111.584 30.0659H110.903L110.295 34.3658H110.976L111.584 30.0659ZM114.749 29.9657C113.086 29.9657 112.478 31.635 112.478 32.8101C112.478 33.8049 112.972 34.4593 113.847 34.4593C114.361 34.4593 114.815 34.1655 115.142 33.7248C115.183 34.1989 115.443 34.3925 115.864 34.4593L116.051 33.9852C115.783 33.8784 115.75 33.7048 115.797 33.391L116.237 30.333C115.763 30.106 115.316 29.9657 114.755 29.9657H114.749ZM114.762 30.5132C115.062 30.5132 115.269 30.56 115.496 30.6668L115.156 33.0905C114.822 33.5713 114.468 33.9185 113.981 33.9185C113.493 33.9185 113.206 33.5646 113.206 32.8168C113.206 31.8486 113.634 30.5199 114.769 30.5199L114.762 30.5132ZM119.79 29.9657C119.162 29.9657 118.668 30.3597 118.261 30.9539L118.334 30.0659H117.753L117.146 34.3658H117.827L118.187 31.7885C118.554 31.1342 119.035 30.54 119.609 30.54C119.97 30.54 120.184 30.7336 120.097 31.3545L119.669 34.3658H120.35L120.778 31.3412C120.898 30.4932 120.511 29.9657 119.79 29.9657Z" fill="#6C451B"/>
<path d="M71.1219 12.9798H68.5713L67.2493 22.2874L65.7804 12.9798H62.9694L61.4004 22.2874L60.272 12.9798H57.5879L59.4507 24.3172H62.8559L64.3449 15.6639L65.7537 24.3172H69.239L71.1353 12.9798H71.1219ZM78.7803 21.7933V18.4215C78.7803 16.4118 77.6986 15.3435 75.1814 15.3435C74.1999 15.3435 73.0048 15.5705 71.9098 15.9844L72.4973 17.687C73.3653 17.3933 74.2133 17.2263 74.7741 17.2263C75.8358 17.2263 76.2431 17.5401 76.2431 18.5684V18.9423H75.3617C72.731 18.9423 71.2888 19.9705 71.2888 21.8668C71.2888 23.4559 72.3838 24.5842 74.1198 24.5842C75.1481 24.5842 76.1162 24.2437 76.7371 23.2756C77.1311 24.1436 77.7988 24.4507 78.8337 24.5375L79.3745 22.8549C78.9672 22.708 78.7869 22.461 78.7869 21.7933H78.7803ZM74.8743 22.7414C74.2333 22.7414 73.8594 22.3341 73.8594 21.6464C73.8594 20.7784 74.4336 20.3711 75.6088 20.3711H76.2497V21.9068C75.9359 22.4276 75.4819 22.7414 74.8743 22.7414ZM82.9733 24.5909C83.6143 24.5909 84.1685 24.4574 84.5424 24.2971L84.0483 22.4677C83.9348 22.5144 83.7879 22.5478 83.621 22.5478C83.3072 22.5478 83.1603 22.3675 83.1603 22.007V11.8982L80.5763 12.1786V22.1071C80.5763 23.6962 81.4577 24.5909 82.9667 24.5909H82.9733ZM90.6918 15.3501C89.5968 15.3501 88.7622 15.8108 88.0411 16.6722L87.8475 15.6239H85.604V24.3105H88.188V18.3748C88.6286 17.6537 89.1227 17.2464 89.6903 17.2464C90.1977 17.2464 90.5048 17.4934 90.5048 18.4081V24.3105H93.0888V17.9675C93.0888 16.3183 92.1874 15.3501 90.6851 15.3501H90.6918ZM102.269 15.6306H99.6855V21.6665C99.3116 22.3208 98.8176 22.6813 98.2767 22.6813C97.7359 22.6813 97.4421 22.4209 97.4421 21.5396V15.6372H94.8582V21.8668C94.8582 23.5493 95.6594 24.5976 97.2819 24.5976C98.4436 24.5976 99.2916 24.1369 99.9126 23.2222L100.026 24.3172H102.269V15.6306ZM108.86 22.274C108.519 22.4677 108.219 22.5545 107.925 22.5545C107.384 22.5545 107.11 22.2607 107.11 21.4261V17.4333H108.826L109.107 15.6372H107.11V13.4606L104.526 13.7544V15.6372H103.298V17.4333H104.526V21.4595C104.526 23.5026 105.461 24.5842 107.371 24.5976C108.158 24.5976 109.073 24.3706 109.728 23.9099L108.86 22.274ZM123.008 12.9865H120.257L118.227 22.2273L116.071 12.9865H113.24L116.511 24.3238H119.85L123.008 12.9865ZM130.105 21.8V18.4282C130.105 16.4184 129.024 15.3501 126.507 15.3501C125.525 15.3501 124.33 15.5771 123.235 15.9911L123.822 17.6937C124.69 17.3999 125.538 17.233 126.099 17.233C127.161 17.233 127.568 17.5468 127.568 18.5751V18.949H126.687C124.056 18.949 122.614 19.9772 122.614 21.8734C122.614 23.4625 123.709 24.5909 125.445 24.5909C126.473 24.5909 127.441 24.2504 128.062 23.2823C128.456 24.1502 129.124 24.4574 130.159 24.5442L130.7 22.8616C130.292 22.7147 130.112 22.4677 130.112 21.8H130.105ZM126.199 22.7481C125.558 22.7481 125.185 22.3408 125.185 21.6531C125.185 20.7851 125.759 20.3778 126.934 20.3778H127.575V21.9135C127.261 22.4343 126.807 22.7481 126.199 22.7481ZM134.298 24.5976C134.939 24.5976 135.494 24.4641 135.867 24.3038L135.373 22.4744C135.26 22.5211 135.113 22.5545 134.946 22.5545C134.632 22.5545 134.485 22.3742 134.485 22.0136V11.9049L131.901 12.1853V22.1138C131.901 23.7029 132.783 24.5976 134.292 24.5976H134.298ZM139.206 24.5976C139.847 24.5976 140.401 24.4641 140.775 24.3038L140.288 22.4744C140.174 22.5211 140.027 22.5545 139.86 22.5545C139.546 22.5545 139.4 22.3742 139.4 22.0136V11.9049L136.816 12.1853V22.1138C136.816 23.7029 137.697 24.5976 139.206 24.5976ZM149.348 19.8036C149.348 16.9926 147.826 15.3568 145.342 15.3568C142.711 15.3568 141.282 17.42 141.282 20.0173C141.282 22.6146 142.751 24.5976 145.649 24.5976C147.058 24.5976 148.166 24.0768 149.034 23.3891L147.973 21.9469C147.218 22.4677 146.597 22.7147 145.896 22.7147C144.835 22.7147 144.1 22.2874 143.92 20.7384H149.301C149.335 20.478 149.348 20.084 149.348 19.8036ZM146.811 19.1827H143.913C144.027 17.6269 144.534 17.0728 145.402 17.0728C146.43 17.0728 146.791 17.894 146.811 19.0691V19.1827ZM158.262 15.6306H155.598L153.895 22.6613L152.339 15.6306H149.588L152.239 24.3172H153.121C152.646 25.4322 152.026 25.9196 150.323 26.1333L150.603 27.9494C153.334 27.8025 154.81 26.5272 155.491 24.3372L158.255 15.6372L158.262 15.6306Z" fill="#697439"/>
<path fill-rule="evenodd" clip-rule="evenodd" d="M15.5905 21.3259C12.9131 20.4312 10.5962 17.5935 10.5962 14.7492C10.5962 11.4241 12.7862 8.57976 16.1581 8.57976C17.5802 8.57976 18.7153 9.22742 19.2027 9.79495C17.5402 10.2423 15.7508 11.985 15.7508 15.1097C15.7508 19.2093 18.7153 21.3993 18.7153 21.3993C16.8057 22.3742 14.5756 25.8261 14.5756 29.7988C14.5756 34.1789 15.6707 37.3504 18.6352 37.3504C19.3763 37.3504 20.0106 37.1701 20.5114 36.8429C21.2659 36.3288 21.6999 35.4875 21.6999 34.466C21.6999 31.6684 19.2628 31.2611 19.2628 27.9293C19.2628 22.7748 28.6772 22.7347 28.6772 27.9293C28.6772 31.2544 26.2401 31.6617 26.2401 34.466C26.2401 36.1686 27.4553 37.3904 29.3649 37.3904C32.3294 37.3904 33.4645 34.1855 33.4645 29.7988C33.4645 25.8595 31.2344 22.3742 29.2848 21.4394C29.2848 21.4394 32.8569 18.9222 32.8569 14.8226C32.8569 10.723 31.3146 9.50784 29.3248 9.50784C28.1097 9.50784 26.8878 10.4426 26.8878 11.6578C26.8878 14.3753 29.6854 13.6876 29.6854 16.405C29.6854 17.46 28.4702 18.6752 26.801 18.6752C24.651 18.6752 23.2289 16.6054 23.2289 14.6156C23.2289 11.0035 26.3937 8.56641 30.1661 8.56641C33.9386 8.56641 37.9981 10.5561 37.9981 15.3434C37.9981 18.141 35.4809 20.5781 32.7634 21.3927C36.823 22.0804 39.6606 25.332 39.6606 29.5117C39.6606 34.7865 35.1938 38.3586 29.7188 38.3586C27.4954 38.3586 25.5391 37.771 23.9967 36.7161C22.461 37.771 20.498 38.3586 18.2546 38.3586C12.7328 38.3586 8.31274 34.7865 8.31274 29.5117C8.31274 25.2118 11.3173 21.8801 15.5772 21.3125L15.5905 21.3259Z" fill="#A4815E"/>
<path d="M24.0033 0C30.6335 0 36.6293 2.6841 40.9759 7.03074C45.3159 11.3707 48.0067 17.3732 48.0067 24.0033C48.0067 30.6335 45.3226 36.6293 40.9759 40.9759C36.636 45.3226 30.6335 48.0067 24.0033 48.0067C17.3732 48.0067 11.3774 45.3226 7.03074 40.9759C2.6841 36.6293 0 30.6268 0 24.0033C0 17.3799 2.6841 11.3707 7.03074 7.03074C11.3707 2.6841 17.3732 0 24.0033 0ZM39.8208 8.18584C35.7747 4.13966 30.1794 1.63583 24.0033 1.63583C17.8272 1.63583 12.2387 4.13966 8.18584 8.18584C4.13966 12.232 1.63583 17.8272 1.63583 24.0033C1.63583 30.1794 4.13966 35.768 8.18584 39.8208C12.232 43.867 17.8272 46.3708 24.0033 46.3708C30.1794 46.3708 35.768 43.867 39.8208 39.8208C43.867 35.7747 46.3708 30.1794 46.3708 24.0033C46.3708 17.8272 43.867 12.2387 39.8208 8.18584Z" fill="#6C451B"/>
</g>
<defs>
<clipPath id="clip0_135_832">
<rect width="158.255" height="48" fill="white"/>
</clipPath>
</defs>
</svg>
