<svg width="12" height="12" viewBox="0 0 12 12" fill="none" xmlns="http://www.w3.org/2000/svg">
<path d="M10.82 8.17318L9.12669 7.97984C8.72003 7.93318 8.32003 8.07318 8.03336 8.35984L6.80669 9.58651C4.92003 8.62651 3.37336 7.08651 2.41336 5.19318L3.64669 3.95984C3.93336 3.67318 4.07336 3.27318 4.02669 2.86651L3.83336 1.18651C3.75336 0.513178 3.18669 0.00651169 2.50669 0.00651169H1.35336C0.600027 0.00651169 -0.0266396 0.633178 0.0200271 1.38651C0.37336 7.07984 4.92669 11.6265 10.6134 11.9798C11.3667 12.0265 11.9934 11.3998 11.9934 10.6465V9.49318C12 8.81984 11.4934 8.25318 10.82 8.17318Z" fill="#222222"/>
</svg>
